<svg width="20" height="20" viewBox="0 0 20 20" fill="none" xmlns="http://www.w3.org/2000/svg">
<path d="M17.9166 5C17.9166 5.20411 17.8417 5.40111 17.706 5.55364C17.5704 5.70617 17.3835 5.80362 17.1808 5.8275L17.0833 5.83333H16.3791L15.3533 16.2667C15.2975 16.8328 15.033 17.3579 14.6115 17.7399C14.1899 18.1219 13.6414 18.3334 13.0725 18.3333H6.92748C6.3586 18.3334 5.81004 18.1219 5.38848 17.7399C4.96692 17.3579 4.7025 16.8328 4.64665 16.2667L3.62081 5.83333H2.91665C2.69563 5.83333 2.48367 5.74554 2.32739 5.58926C2.17111 5.43298 2.08331 5.22101 2.08331 5C2.08331 4.77899 2.17111 4.56703 2.32739 4.41074C2.48367 4.25446 2.69563 4.16667 2.91665 4.16667H7.08331C7.08331 3.78364 7.15875 3.40437 7.30533 3.05051C7.45191 2.69664 7.66675 2.37511 7.93758 2.10427C8.20842 1.83343 8.52995 1.61859 8.88382 1.47202C9.23769 1.32544 9.61696 1.25 9.99998 1.25C10.383 1.25 10.7623 1.32544 11.1161 1.47202C11.47 1.61859 11.7915 1.83343 12.0624 2.10427C12.3332 2.37511 12.5481 2.69664 12.6946 3.05051C12.8412 3.40437 12.9166 3.78364 12.9166 4.16667H17.0833C17.3043 4.16667 17.5163 4.25446 17.6726 4.41074C17.8288 4.56703 17.9166 4.77899 17.9166 5ZM11.875 7.70833C11.7239 7.70834 11.578 7.76304 11.4642 7.86231C11.3504 7.96158 11.2764 8.09871 11.2558 8.24833L11.25 8.33333V14.1667L11.2558 14.2517C11.2764 14.4013 11.3504 14.5383 11.4643 14.6376C11.5781 14.7368 11.724 14.7915 11.875 14.7915C12.026 14.7915 12.1719 14.7368 12.2857 14.6376C12.3995 14.5383 12.4736 14.4013 12.4941 14.2517L12.5 14.1667V8.33333L12.4941 8.24833C12.4736 8.09871 12.3996 7.96158 12.2858 7.86231C12.1719 7.76304 12.026 7.70834 11.875 7.70833ZM8.12498 7.70833C7.97395 7.70834 7.82803 7.76304 7.7142 7.86231C7.60038 7.96158 7.52635 8.09871 7.50581 8.24833L7.49998 8.33333V14.1667L7.50581 14.2517C7.52639 14.4013 7.60044 14.5383 7.71426 14.6376C7.82808 14.7368 7.97398 14.7915 8.12498 14.7915C8.27598 14.7915 8.42188 14.7368 8.5357 14.6376C8.64952 14.5383 8.72356 14.4013 8.74415 14.2517L8.74998 14.1667V8.33333L8.74415 8.24833C8.72361 8.09871 8.64958 7.96158 8.53575 7.86231C8.42193 7.76304 8.27601 7.70834 8.12498 7.70833ZM9.99998 2.91667C9.66846 2.91667 9.35052 3.04836 9.1161 3.28278C8.88167 3.5172 8.74998 3.83515 8.74998 4.16667H11.25C11.25 3.83515 11.1183 3.5172 10.8839 3.28278C10.6494 3.04836 10.3315 2.91667 9.99998 2.91667Z" fill="#EE2B00"/>
</svg>
