<svg width="9" height="10" viewBox="0 0 9 10" fill="none" xmlns="http://www.w3.org/2000/svg">
<path d="M7.125 4.23751C7.12519 4.29976 7.11282 4.36126 7.08881 4.41751C7.0648 4.47375 7.02975 4.5233 6.98625 4.56251L4.73625 6.57501C4.66915 6.6363 4.58498 6.6698 4.49812 6.6698C4.41126 6.6698 4.3271 6.6363 4.26 6.57501L2.01 4.49168C1.93342 4.42096 1.88526 4.31933 1.87611 4.20915C1.86697 4.09897 1.89759 3.98927 1.96125 3.90418C2.0249 3.81909 2.11637 3.76558 2.21553 3.75542C2.31468 3.74526 2.41342 3.77929 2.49 3.85001L4.5 5.71251L6.51 3.91251C6.56504 3.86156 6.63207 3.8292 6.70315 3.81925C6.77423 3.8093 6.84639 3.82218 6.91109 3.85637C6.97578 3.89056 7.03031 3.94463 7.06822 4.01217C7.10613 4.07972 7.12583 4.15792 7.125 4.23751Z" fill="black"/>
</svg>
