<svg width="14" height="14" viewBox="0 0 14 14" fill="none" xmlns="http://www.w3.org/2000/svg">
<path d="M11.0834 11.6667H2.91672C2.76201 11.6667 2.61364 11.7281 2.50424 11.8375C2.39484 11.9469 2.33338 12.0953 2.33338 12.25C2.33338 12.4047 2.39484 12.5531 2.50424 12.6625C2.61364 12.7719 2.76201 12.8333 2.91672 12.8333H11.0834C11.2381 12.8333 11.3865 12.7719 11.4959 12.6625C11.6053 12.5531 11.6667 12.4047 11.6667 12.25C11.6667 12.0953 11.6053 11.9469 11.4959 11.8375C11.3865 11.7281 11.2381 11.6667 11.0834 11.6667ZM2.91672 10.5H2.96922L5.40172 10.2783C5.66818 10.2518 5.9174 10.1344 6.10755 9.94582L11.3576 4.69582C11.5613 4.48055 11.6714 4.19328 11.6638 3.89697C11.6561 3.60065 11.5313 3.31945 11.3167 3.11499L9.71838 1.51666C9.50978 1.32071 9.23643 1.20828 8.95033 1.20075C8.66423 1.19322 8.38534 1.29112 8.16672 1.47582L2.91672 6.72582C2.72816 6.91597 2.61076 7.16519 2.58422 7.43166L2.33338 9.86416C2.32553 9.9496 2.33661 10.0357 2.36585 10.1164C2.39509 10.197 2.44177 10.2703 2.50255 10.3308C2.55706 10.3849 2.6217 10.4277 2.69277 10.4567C2.76384 10.4857 2.83995 10.5004 2.91672 10.5ZM8.90755 2.33332L10.5001 3.92582L9.33338 5.06332L7.77005 3.49999L8.90755 2.33332Z" fill="white"/>
</svg>
