<svg width="17" height="17" viewBox="0 0 17 17" fill="none" xmlns="http://www.w3.org/2000/svg">
<path d="M12.8612 11.9581L12.0204 12.7897C11.4006 13.3974 10.5967 14.1794 9.60783 15.1357C9.31063 15.423 8.9134 15.5837 8.5 15.5837C8.08659 15.5837 7.68936 15.423 7.39216 15.1357L4.91937 12.7302C4.60841 12.4249 4.34845 12.1678 4.13879 11.9581C3.2763 11.0955 2.68895 9.9966 2.45101 8.80024C2.21307 7.60388 2.33524 6.36383 2.80205 5.2369C3.26886 4.10997 4.05936 3.14678 5.07359 2.46911C6.08781 1.79144 7.28021 1.42973 8.5 1.42973C9.71979 1.42973 10.9122 1.79144 11.9264 2.46911C12.9406 3.14678 13.7311 4.10997 14.1979 5.2369C14.6648 6.36383 14.7869 7.60388 14.549 8.80024C14.311 9.9966 13.7237 11.0955 12.8612 11.9581ZM10.2708 7.79167C10.2708 7.32202 10.0843 6.8716 9.75216 6.5395C9.42007 6.20741 8.96965 6.02084 8.5 6.02084C8.03034 6.02084 7.57992 6.20741 7.24783 6.5395C6.91573 6.8716 6.72916 7.32202 6.72916 7.79167C6.72916 8.26132 6.91573 8.71174 7.24783 9.04384C7.57992 9.37593 8.03034 9.5625 8.5 9.5625C8.96965 9.5625 9.42007 9.37593 9.75216 9.04384C10.0843 8.71174 10.2708 8.26132 10.2708 7.79167Z" fill="#056EA1"/>
</svg>
