<svg width="24" height="27" viewBox="0 0 24 27" fill="none" xmlns="http://www.w3.org/2000/svg">
<path d="M23.1186 16.8814L20.75 14.5128V11.375C20.7473 9.20661 19.9406 7.11624 18.4861 5.50811C17.0315 3.89998 15.0322 2.88832 12.875 2.66875V0.875H11.125V2.66875C8.96775 2.88832 6.96854 3.89998 5.51395 5.50811C4.05936 7.11624 3.25271 9.20661 3.25 11.375V14.5128L0.881375 16.8814C0.717269 17.0454 0.62505 17.268 0.625 17.5V20.125C0.625 20.3571 0.717187 20.5796 0.881282 20.7437C1.04538 20.9078 1.26794 21 1.5 21H7.625V21.875C7.625 23.0353 8.08594 24.1481 8.90641 24.9686C9.72688 25.7891 10.8397 26.25 12 26.25C13.1603 26.25 14.2731 25.7891 15.0936 24.9686C15.9141 24.1481 16.375 23.0353 16.375 21.875V21H22.5C22.7321 21 22.9546 20.9078 23.1187 20.7437C23.2828 20.5796 23.375 20.3571 23.375 20.125V17.5C23.375 17.268 23.2827 17.0454 23.1186 16.8814ZM14.625 21.875C14.625 22.5712 14.3484 23.2389 13.8562 23.7312C13.3639 24.2234 12.6962 24.5 12 24.5C11.3038 24.5 10.6361 24.2234 10.1438 23.7312C9.65156 23.2389 9.375 22.5712 9.375 21.875V21H14.625V21.875Z" fill="black"/>
</svg>
